<svg width="312" height="350" viewBox="0 0 312 350" fill="none" xmlns="http://www.w3.org/2000/svg">
<g clip-path="url(#clip0_2316_850)">
<g opacity="0.85">
<path d="M176.888 680.464V269.352L138.817 231.281V45.2308" stroke="#040212" stroke-width="0.75"/>
<path d="M157.838 680.464V198.579L121.768 162.509V83.818" stroke="#040212" stroke-width="0.25"/>
<path d="M167.939 661.079V339.762L224.971 282.761V211.805L266.501 170.245V115.276" stroke="#040212" stroke-width="0.25"/>
<path d="M196.091 661.079V83.818" stroke="#040212" stroke-width="0.75"/>
<path d="M138.817 661.079V313.036L80.6327 254.882V132.871" stroke="#040212" stroke-width="0.25"/>
<path d="M121.768 669.786V263.831L100.139 242.171V110.605" stroke="#040212" stroke-width="0.75"/>
<path d="M242.323 272.841V160.962L305.786 97.5298V55.3933" stroke="#040212" stroke-width="0.75"/>
<path d="M69.9242 235.042V181.318L34.5526 145.946V69.9242" stroke="#040212" stroke-width="0.25"/>
<path d="M52.2384 212.321V110.605L5.88515 64.221V21.4778" stroke="#040212" stroke-width="0.75"/>
<path d="M211.35 183.259V122.223L234.587 98.9859V17.6251" stroke="#040212" stroke-width="0.75"/>
<path d="M222.969 152.468V55.3933" stroke="#040212" stroke-width="0.25"/>
<path d="M100.139 669.786V303.359L28.273 231.493V179.376" stroke="#040212" stroke-width="0.25"/>
<path d="M217.235 681.404V323.684L266.379 274.54V203.584" stroke="#040212" stroke-width="0.25"/>
<path d="M52.2384 206.436C55.4843 206.436 58.1235 209.075 58.1235 212.321C58.1235 215.567 55.4843 218.206 52.2384 218.206C48.9924 218.206 46.3532 215.567 46.3532 212.321C46.3532 209.075 48.9924 206.436 52.2384 206.436Z" fill="#040212"/>
<path d="M211.35 181.682C214.596 181.682 217.235 184.321 217.235 187.567C217.235 190.813 214.596 193.452 211.35 193.452C208.104 193.452 205.465 190.813 205.465 187.567C205.465 184.321 208.104 181.682 211.35 181.682Z" fill="#040212"/>
<path d="M242.323 266.986C245.569 266.986 248.208 269.625 248.208 272.871C248.208 276.117 245.569 278.756 242.323 278.756C239.077 278.756 236.438 276.117 236.438 272.871C236.438 269.625 239.077 266.986 242.323 266.986Z" fill="#040212"/>
<path d="M161.811 11.7703C165.062 11.7703 167.697 9.13544 167.697 5.88516C167.697 2.63487 165.062 0 161.811 0C158.561 0 155.926 2.63487 155.926 5.88516C155.926 9.13544 158.561 11.7703 161.811 11.7703Z" fill="#040212"/>
<path d="M196.091 77.9632C199.337 77.9632 201.976 80.6024 201.976 83.8483C201.976 87.0943 199.337 89.7335 196.091 89.7335C192.845 89.7335 190.206 87.0943 190.206 83.8483C190.206 80.6024 192.845 77.9632 196.091 77.9632Z" fill="#040212"/>
<path d="M34.5525 73.5038C36.5295 73.5038 38.1322 71.9011 38.1322 69.9242C38.1322 67.9472 36.5295 66.3445 34.5525 66.3445C32.5756 66.3445 30.9729 67.9472 30.9729 69.9242C30.9729 71.9011 32.5756 73.5038 34.5525 73.5038Z" fill="#040212"/>
<path d="M222.969 148.888C224.94 148.888 226.548 150.496 226.548 152.468C226.548 154.44 224.94 156.048 222.969 156.048C220.997 156.048 219.389 154.44 219.389 152.468C219.389 150.496 220.997 148.888 222.969 148.888Z" fill="#040212"/>
<path d="M80.6327 136.451C82.6097 136.451 84.2124 134.848 84.2124 132.871C84.2124 130.894 82.6097 129.291 80.6327 129.291C78.6558 129.291 77.0531 130.894 77.0531 132.871C77.0531 134.848 78.6558 136.451 80.6327 136.451Z" fill="#040212"/>
<path d="M266.379 111.697C268.351 111.697 269.959 113.304 269.959 115.276C269.959 117.248 268.351 118.856 266.379 118.856C264.407 118.856 262.8 117.248 262.8 115.276C262.8 113.304 264.407 111.697 266.379 111.697Z" fill="#040212"/>
<path d="M28.273 175.796C30.2449 175.796 31.8527 177.404 31.8527 179.376C31.8527 181.348 30.2449 182.956 28.273 182.956C26.3012 182.956 24.6934 181.348 24.6934 179.376C24.6934 177.404 26.3012 175.796 28.273 175.796Z" fill="#040212"/>
<path d="M5.88516 15.623C9.1311 15.623 11.7703 18.2622 11.7703 21.5081C11.7703 24.7541 9.1311 27.3933 5.88516 27.3933C2.63922 27.3933 0 24.7541 0 21.5081C0 18.2622 2.63922 15.623 5.88516 15.623Z" fill="#040212"/>
<path d="M305.786 49.5081C309.031 49.5081 311.671 52.1473 311.671 55.3933C311.671 58.6392 309.031 61.2784 305.786 61.2784C302.54 61.2784 299.9 58.6392 299.9 55.3933C299.9 52.1473 302.54 49.5081 305.786 49.5081Z" fill="#040212"/>
<path d="M138.817 33.4908C142.063 33.4908 144.702 36.13 144.702 39.3759C144.702 42.6219 142.063 45.2611 138.817 45.2611C135.571 45.2611 132.932 42.6219 132.932 39.3759C132.932 36.13 135.571 33.4908 138.817 33.4908Z" stroke="#040212" stroke-width="0.75" stroke-miterlimit="10"/>
<path d="M100.139 110.605C103.389 110.605 106.024 107.97 106.024 104.719C106.024 101.469 103.389 98.8342 100.139 98.8342C96.8884 98.8342 94.2535 101.469 94.2535 104.719C94.2535 107.97 96.8884 110.605 100.139 110.605Z" stroke="#040212" stroke-width="0.75" stroke-miterlimit="10"/>
<path d="M234.587 17.6251C237.838 17.6251 240.472 14.9902 240.472 11.74C240.472 8.48967 237.838 5.8548 234.587 5.8548C231.337 5.8548 228.702 8.48967 228.702 11.74C228.702 14.9902 231.337 17.6251 234.587 17.6251Z" stroke="#040212" stroke-width="0.75" stroke-miterlimit="10"/>
<path d="M176.888 250.938C180.139 250.938 182.774 248.303 182.774 245.053C182.774 241.803 180.139 239.168 176.888 239.168C173.638 239.168 171.003 241.803 171.003 245.053C171.003 248.303 173.638 250.938 176.888 250.938Z" stroke="#040212" stroke-width="0.75" stroke-miterlimit="10"/>
<path d="M222.969 47.0812C225.274 47.0812 227.125 48.9317 227.125 51.2372C227.125 53.5428 225.274 55.3933 222.969 55.3933C220.663 55.3933 218.813 53.5428 218.813 51.2372C218.813 48.9317 220.663 47.0812 222.969 47.0812Z" stroke="#040212" stroke-width="0.25" stroke-miterlimit="10"/>
<path d="M266.379 203.584C268.675 203.584 270.535 201.723 270.535 199.428C270.535 197.133 268.675 195.272 266.379 195.272C264.084 195.272 262.223 197.133 262.223 199.428C262.223 201.723 264.084 203.584 266.379 203.584Z" stroke="#040212" stroke-width="0.25" stroke-miterlimit="10"/>
<path d="M121.768 75.5363C124.074 75.5363 125.924 77.3868 125.924 79.6923C125.924 81.9979 124.074 83.8483 121.768 83.8483C119.463 83.8483 117.612 81.9979 117.612 79.6923C117.612 77.3868 119.463 75.5363 121.768 75.5363Z" stroke="#040212" stroke-width="0.25" stroke-miterlimit="10"/>
<path d="M69.9242 235.042C72.2297 235.042 74.0802 236.893 74.0802 239.198C74.0802 241.504 72.2297 243.354 69.9242 243.354C67.6186 243.354 65.7682 241.504 65.7682 239.198C65.7682 236.893 67.6186 235.042 69.9242 235.042Z" stroke="#040212" stroke-width="0.25" stroke-miterlimit="10"/>
<path d="M176.888 239.198V136.451L161.811 121.404V5.88513" stroke="#040212" stroke-width="0.75"/>
</g>
</g>
<defs>
<clipPath id="clip0_2316_850">
<rect width="311.64" height="350" fill="white"/>
</clipPath>
</defs>
</svg>
