<svg width="78" height="78" viewBox="0 0 78 78" fill="none" xmlns="http://www.w3.org/2000/svg">
<path d="M0.500004 39C0.500002 17.737 17.737 0.499998 39 0.499996C60.263 0.499994 77.5 17.737 77.5 39C77.5 60.263 60.263 77.5 39 77.5C17.737 77.5 0.500006 60.263 0.500004 39Z" fill="#040212" stroke="#3C3B47"/>
<path d="M48.7071 41.7071C49.0976 41.3166 49.0976 40.6834 48.7071 40.2929L42.3431 33.9289C41.9526 33.5384 41.3195 33.5384 40.9289 33.9289C40.5384 34.3195 40.5384 34.9526 40.9289 35.3431L46.5858 41L40.9289 46.6569C40.5384 47.0474 40.5384 47.6805 40.9289 48.0711C41.3195 48.4616 41.9526 48.4616 42.3431 48.0711L48.7071 41.7071ZM32 42L48 42L48 40L32 40L32 42Z" fill="white"/>
</svg>
