<svg width="76" height="76" viewBox="0 0 76 76" fill="none" xmlns="http://www.w3.org/2000/svg">
<path fill-rule="evenodd" clip-rule="evenodd" d="M38.277 0.620239C17.4538 0.620239 0.620209 17.6818 0.620209 38.7893C0.620209 55.6617 11.4061 69.9437 26.3689 74.9986C28.2396 75.3786 28.9249 74.1773 28.9249 73.1668C28.9249 72.282 28.8632 69.2489 28.8632 66.0886C18.388 68.364 16.2066 61.5386 16.2066 61.5386C14.5232 57.115 12.0289 55.9781 12.0289 55.9781C8.60033 53.6399 12.2786 53.6399 12.2786 53.6399C16.0817 53.8927 18.0774 57.5578 18.0774 57.5578C21.4435 63.3712 26.8676 61.7286 29.0497 60.7173C29.3611 58.2527 30.3593 56.5465 31.4192 55.5988C23.0645 54.714 14.2742 51.4281 14.2742 36.7667C14.2742 32.596 15.7696 29.1836 18.139 26.5298C17.7652 25.5821 16.4556 21.6634 18.5136 16.4185C18.5136 16.4185 21.6932 15.4072 28.8624 20.3364C31.9318 19.5009 35.0973 19.0759 38.277 19.0723C41.4566 19.0723 44.6978 19.5152 47.6908 20.3364C54.8609 15.4072 58.0404 16.4185 58.0404 16.4185C60.0985 21.6634 58.7881 25.5821 58.4142 26.5298C60.8461 29.1836 62.2798 32.596 62.2798 36.7667C62.2798 51.4281 53.4896 54.6504 45.0724 55.5988C46.4445 56.7994 47.6284 59.074 47.6284 62.6763C47.6284 67.7948 47.5667 71.9027 47.5667 73.1661C47.5667 74.1773 48.2528 75.3786 50.1227 74.9994C65.0856 69.943 75.8714 55.6617 75.8714 38.7893C75.9331 17.6818 59.0378 0.620239 38.277 0.620239Z" fill="white"/>
</svg>
