<svg width="73" height="73" viewBox="0 0 73 73" fill="none" xmlns="http://www.w3.org/2000/svg">
<path d="M72.0741 72.3715V45.9835C72.0741 33.0147 69.2822 23.1079 54.1518 23.1079C46.8569 23.1079 41.9936 27.0706 40.0122 30.8532H39.8321V24.2787H25.5123V72.3715H40.4625V48.5052C40.4625 42.2009 41.6333 36.1668 49.3786 36.1668C57.0338 36.1668 57.1239 43.2817 57.1239 48.8655V72.2815H72.0741V72.3715Z" fill="white"/>
<path d="M1.19571 24.2786H16.1459V72.3714H1.19571V24.2786Z" fill="white"/>
<path d="M8.6705 0.322388C3.89724 0.322388 0.0245972 4.19503 0.0245972 8.96829C0.0245972 13.7415 3.89724 17.7043 8.6705 17.7043C13.4438 17.7043 17.3164 13.7415 17.3164 8.96829C17.3164 4.19503 13.4438 0.322388 8.6705 0.322388Z" fill="white"/>
</svg>
