<svg width="73" height="55" viewBox="0 0 73 55" fill="none" xmlns="http://www.w3.org/2000/svg">
<path d="M42.576 36.034C40.7835 37.229 38.7014 37.8607 36.5547 37.8607C34.4081 37.8607 32.326 37.229 30.5335 36.034L1.00978 16.3509C0.845979 16.2417 0.686401 16.1278 0.53006 16.0108V48.2636C0.53006 51.9615 3.53094 54.8962 7.16267 54.8962H65.9465C69.6444 54.8962 72.5791 51.8953 72.5791 48.2636V16.0106C72.4225 16.128 72.2626 16.2421 72.0984 16.3514L42.576 36.034Z" fill="white"/>
<path d="M3.35152 12.8383L32.8752 32.5215C33.9928 33.2667 35.2737 33.6392 36.5545 33.6392C37.8355 33.6392 39.1165 33.2665 40.2341 32.5215L69.7578 12.8383C71.5245 11.6612 72.5792 9.6911 72.5792 7.5648C72.5792 3.90873 69.6048 0.934448 65.9489 0.934448H7.16041C3.50448 0.934589 0.53006 3.90887 0.53006 7.56832C0.53006 9.6911 1.5849 11.6612 3.35152 12.8383Z" fill="white"/>
</svg>
