<svg width="73" height="62" viewBox="0 0 73 62" fill="none" xmlns="http://www.w3.org/2000/svg">
<path opacity="0.4" d="M70.8403 61.0408L48.6503 50.3733L48.4831 2.01635C48.4793 0.887485 49.6577 0.143636 50.6751 0.632823L71.7123 10.749C72.242 11.0037 72.5788 11.5396 72.5788 12.1272V59.9476C72.5787 60.8412 71.6455 61.428 70.8403 61.0408Z" fill="white"/>
<path opacity="0.6" d="M48.6518 50.3734L24.6356 38.8262L47.7562 0.760123C48.1647 0.0876743 49.0169 -0.165158 49.726 0.175735L71.0572 10.4335C71.8727 10.8256 72.1713 11.836 71.6998 12.6083L48.6518 50.3734Z" fill="white"/>
<path opacity="0.8" d="M48.65 50.3734L24.6337 38.8263L2.62052 2.97978C2.0072 1.98109 3.07437 0.798582 4.13055 1.30644L24.6337 11.1658L48.65 50.3734Z" fill="white"/>
<path d="M22.8957 61.0407L1.21734 50.6162C0.797172 50.4141 0.53006 49.9892 0.53006 49.5231V1.44306C0.53006 0.577834 1.43392 0.00937378 2.21384 0.384502L24.6342 11.1658V59.9476C24.6342 60.8412 23.7009 61.4279 22.8957 61.0407Z" fill="white"/>
</svg>
