<svg width="94" height="107" viewBox="0 0 94 107" fill="none" xmlns="http://www.w3.org/2000/svg">
<path d="M43.7972 105.932L3.20284 82.4887C2.22956 81.9246 1.42147 81.1148 0.859399 80.1403C0.29733 79.1659 0.000987716 78.0609 1.39445e-05 76.9359V30.0686C-0.00233626 28.9404 0.29243 27.8315 0.854664 26.8535C1.4169 25.8754 2.22677 25.0626 3.20284 24.4968L43.7972 1.07265C44.7738 0.508771 45.8817 0.211914 47.0095 0.211914C48.1372 0.211914 49.2451 0.508771 50.2218 1.07265L90.7972 24.5158C91.7732 25.0815 92.5831 25.8943 93.1453 26.8724C93.7076 27.8505 94.0023 28.9594 94 30.0876V76.9359C94.0023 78.0641 93.7076 79.173 93.1453 80.1511C92.5831 81.1292 91.7732 81.9419 90.7972 82.5077L50.2218 105.932C49.2451 106.496 48.1372 106.793 47.0095 106.793C45.8817 106.793 44.7738 106.496 43.7972 105.932Z" fill="white"/>
<path d="M43.4969 65.5791C40.7563 68.0544 37.0875 69.3363 32.9767 69.3363C24.313 69.3363 16.8428 62.8385 16.8428 53.4234C16.8428 44.0083 24.313 37.5105 32.9767 37.5105C37.0433 37.5105 40.6679 38.8366 43.3201 41.1793L39.4302 45.5553C37.7948 44.4061 35.5846 43.5662 33.3303 43.5662C27.7608 43.5662 23.5616 47.6771 23.5616 53.4234C23.5616 59.1697 27.7608 63.2805 33.3303 63.2805C35.673 63.2805 37.9716 62.3965 39.6513 61.0704L43.4969 65.5791ZM76.8255 52.4509C78.1958 62.8385 71.4328 69.3363 63.0786 69.3363C54.2823 69.3363 47.0331 62.8385 47.0331 53.4234C47.0331 44.0083 54.4591 37.5105 63.0786 37.5105C67.1894 37.5105 70.814 38.8366 73.4661 41.1793L69.5763 45.5553C67.9408 44.4061 65.7307 43.5662 63.4764 43.5662C57.8627 43.5662 53.7518 47.6771 53.7518 53.4234C53.7518 59.1697 57.7301 63.2805 63.0786 63.2805C67.1452 63.2805 69.9741 61.8218 70.8582 57.932H63.5648V52.4509H76.8255Z" fill="#202326"/>
</svg>
