<svg width="53" height="60" viewBox="0 0 53 60" fill="none" xmlns="http://www.w3.org/2000/svg">
<path d="M24.6558 59.5154L1.80305 46.3181C1.25514 46.0005 0.80022 45.5446 0.483802 44.996C0.167383 44.4474 0.000556039 43.8254 7.85009e-06 43.1921V16.8079C-0.0013152 16.1728 0.164624 15.5486 0.481136 14.998C0.797648 14.4473 1.25357 13.9898 1.80305 13.6713L24.6558 0.484553C25.2056 0.167116 25.8293 0 26.4642 0C27.099 0 27.7227 0.167116 28.2725 0.484553L51.1146 13.682C51.6641 14.0004 52.12 14.458 52.4365 15.0086C52.753 15.5592 52.919 16.1835 52.9176 16.8186V43.1921C52.919 43.8272 52.753 44.4514 52.4365 45.002C52.12 45.5527 51.6641 46.0102 51.1146 46.3287L28.2725 59.5154C27.7227 59.8329 27.099 60 26.4642 60C25.8293 60 25.2056 59.8329 24.6558 59.5154Z" fill="#E96C5C"/>
<path d="M24.4874 36.7991C22.9446 38.1926 20.8793 38.9142 18.5651 38.9142C13.6878 38.9142 9.48242 35.2563 9.48242 29.956C9.48242 24.6557 13.6878 20.9978 18.5651 20.9978C20.8544 20.9978 22.8949 21.7443 24.3879 23.0632L22.1981 25.5267C21.2774 24.8797 20.0332 24.4069 18.7641 24.4069C15.6288 24.4069 13.2648 26.7211 13.2648 29.956C13.2648 33.1909 15.6288 35.5051 18.7641 35.5051C20.083 35.5051 21.3769 35.0075 22.3225 34.2609L24.4874 36.7991ZM43.2499 29.4086C44.0213 35.2563 40.2141 38.9142 35.511 38.9142C30.5591 38.9142 26.4781 35.2563 26.4781 29.956C26.4781 24.6557 30.6586 20.9978 35.511 20.9978C37.8252 20.9978 39.8657 21.7443 41.3587 23.0632L39.169 25.5267C38.2482 24.8797 37.004 24.4069 35.735 24.4069C32.5747 24.4069 30.2605 26.7211 30.2605 29.956C30.2605 33.1909 32.5001 35.5051 35.511 35.5051C37.8003 35.5051 39.3929 34.684 39.8906 32.4942H35.7847V29.4086H43.2499Z" fill="#040212"/>
</svg>
